<?xml version="1.0" encoding="UTF-8"?>
<svg xmlns="http://www.w3.org/2000/svg" xmlns:xlink="http://www.w3.org/1999/xlink" width="240px" height="240px" viewBox="0 0 240 240" version="1.1">
<g id="surface1">
<path class="favicon-path" fill="#93c575" style=" stroke:none;fill-rule:nonzero;fill-opacity:1;" d="M 82.984375 14.792969 C 80.664062 15.308594 77.734375 16.597656 75.53125 18.074219 C 73.117188 19.714844 69.320312 23.699219 67.28125 26.746094 C 60.039062 37.667969 57.578125 53.136719 60.71875 68.113281 C 62.382812 76.082031 66.109375 84.308594 70.585938 89.910156 C 72.390625 92.160156 76.492188 96.355469 78.484375 97.996094 C 81.085938 100.128906 84.367188 102.214844 87.8125 103.972656 C 89.570312 104.886719 91.023438 105.683594 91.023438 105.753906 C 91.023438 106.011719 87.039062 112.996094 85.445312 115.574219 C 80.3125 123.777344 76.304688 128.722656 71.195312 133.128906 C 67.257812 136.527344 61.585938 140.347656 61.140625 139.902344 C 61.046875 139.808594 61.140625 139.246094 61.351562 138.613281 C 62.335938 135.636719 63.507812 127.433594 64.070312 119.605469 C 64.75 110.230469 62.851562 99.800781 59.101562 92.253906 C 56.265625 86.582031 51.367188 81.332031 46.726562 79.011719 C 41.875 76.574219 36.484375 76.105469 31.75 77.722656 C 28.375 78.847656 26.429688 80.089844 23.734375 82.761719 C 18.859375 87.566406 15.648438 93.824219 14.03125 101.769531 C 13.375 104.886719 12.882812 111.144531 13.117188 113.582031 C 13.492188 117.964844 13.703125 119.253906 14.476562 122.488281 C 17.804688 136.152344 27.109375 145.691406 39.203125 147.800781 C 43.5625 148.574219 49.351562 148.457031 52.867188 147.566406 C 53.640625 147.355469 54.320312 147.238281 54.390625 147.308594 C 54.460938 147.355469 54.25 148.082031 53.921875 148.902344 C 46.398438 167.910156 44.21875 174.964844 42.648438 185.652344 C 42.203125 188.605469 42.320312 196.011719 42.835938 198.847656 C 45.671875 213.988281 58.796875 224.699219 73.679688 223.996094 C 79.984375 223.714844 84.25 222.613281 90.25 219.753906 C 93.953125 217.972656 96.507812 216.355469 100.140625 213.425781 C 103.046875 211.105469 103.75 210.425781 104.710938 208.996094 C 105.507812 207.800781 105.484375 207.097656 104.617188 206.230469 C 103.492188 205.105469 102.835938 205.386719 100.046875 208.128906 C 94.796875 213.261719 88.445312 216.800781 80.898438 218.769531 C 78.085938 219.496094 77.898438 219.519531 72.859375 219.519531 C 67.914062 219.519531 67.609375 219.496094 65.359375 218.863281 C 58.164062 216.824219 52.28125 211.738281 49.070312 204.753906 C 46.960938 200.183594 46.492188 197.769531 46.492188 191.277344 C 46.492188 183.144531 48.15625 176.628906 54.578125 159.402344 C 56.289062 154.832031 58.070312 149.910156 58.539062 148.503906 C 59.007812 147.074219 59.476562 145.808594 59.570312 145.667969 C 59.664062 145.527344 61.117188 144.707031 62.78125 143.839844 C 75.203125 137.394531 83.617188 127.996094 93.601562 109.410156 C 94.539062 107.652344 94.9375 107.136719 95.21875 107.230469 C 95.429688 107.300781 96.976562 107.816406 98.640625 108.402344 C 101.359375 109.339844 105.460938 110.371094 107.992188 110.792969 C 108.484375 110.863281 109.117188 110.980469 109.398438 111.027344 C 112.726562 111.707031 122.710938 111.707031 127 111.003906 C 130.46875 110.464844 135.109375 109.339844 137.828125 108.425781 C 139.117188 107.980469 140.242188 107.605469 140.3125 107.605469 C 140.382812 107.605469 141.085938 108.707031 141.859375 110.066406 C 146.851562 118.574219 153.132812 126.214844 159.695312 131.722656 C 164.828125 136.035156 169.328125 139.035156 172.609375 140.394531 C 173.59375 140.816406 174.578125 141.261719 174.789062 141.425781 C 175.023438 141.589844 175.796875 143.535156 176.570312 145.808594 C 177.929688 149.933594 180.742188 157.152344 183.789062 164.324219 C 187.65625 173.488281 189.296875 178.175781 190.140625 182.488281 C 190.867188 186.191406 190.890625 186.519531 191.03125 190.175781 C 191.335938 198.730469 188.59375 205.714844 182.546875 211.808594 C 177.15625 217.222656 170.640625 220.269531 162.273438 221.277344 C 152.734375 222.425781 142.351562 219.332031 132.765625 212.511719 C 130.023438 210.566406 125.429688 206.417969 120.765625 201.683594 C 112.257812 192.988281 107.007812 185.910156 100.679688 174.519531 C 98.335938 170.300781 97.28125 166.457031 97.445312 162.800781 C 97.539062 160.433594 98.21875 158.605469 99.578125 157.128906 C 102.976562 153.308594 108.390625 153.542969 112.328125 157.621094 C 114.25 159.636719 115.375 162.027344 116.3125 166.152344 C 116.710938 167.863281 117.15625 169.480469 117.296875 169.738281 C 117.625 170.347656 119.054688 170.957031 119.757812 170.792969 C 120.460938 170.605469 121.28125 169.457031 121.960938 167.722656 C 122.78125 165.613281 123.953125 163.949219 126.0625 161.863281 C 130.445312 157.550781 135.367188 155.933594 138.179688 157.902344 C 138.835938 158.347656 139.421875 159.027344 139.84375 159.871094 C 141.085938 162.332031 140.5 165.730469 137.921875 170.816406 C 136.421875 173.816406 132.648438 180.027344 130.609375 182.863281 C 129.25 184.761719 128.992188 185.277344 128.992188 186.050781 C 128.992188 187.058594 129.367188 187.550781 130.46875 187.972656 C 131.78125 188.488281 132.953125 187.457031 135.648438 183.425781 C 137.6875 180.355469 141.671875 173.511719 142.609375 171.425781 C 146.265625 163.410156 145.351562 156.988281 140.171875 153.917969 C 135.296875 151.035156 128.335938 153.050781 122.21875 159.121094 C 121.023438 160.316406 119.992188 161.253906 119.96875 161.230469 C 119.921875 161.183594 119.570312 160.433594 119.171875 159.566406 C 117.671875 156.214844 114.554688 152.769531 111.789062 151.433594 C 107.59375 149.394531 102.367188 149.582031 98.78125 151.878906 C 93.414062 155.324219 91.679688 163.199219 94.492188 171.378906 C 96.929688 178.433594 106.234375 192.519531 114.015625 200.957031 C 116.734375 203.886719 122.851562 209.886719 125.359375 212.042969 C 133.515625 219.121094 141.484375 223.222656 150.671875 225.050781 C 152.828125 225.496094 154.046875 225.589844 158.289062 225.589844 C 162.882812 225.613281 163.585938 225.542969 166.257812 224.980469 C 169.984375 224.183594 173.054688 223.152344 175.867188 221.746094 C 183.132812 218.113281 188.921875 212.394531 192.15625 205.691406 C 194.289062 201.238281 195.0625 198.003906 195.25 192.636719 C 195.390625 188.347656 195.15625 185.722656 194.242188 181.574219 C 193.117188 176.441406 192.390625 174.402344 188.359375 164.816406 C 184.398438 155.417969 179.875 143.371094 180.179688 143.042969 C 180.25 142.996094 181.375 143.136719 182.710938 143.371094 C 187.445312 144.191406 194.007812 143.792969 199.234375 142.386719 C 211.65625 139.058594 221.03125 129.402344 224.828125 116.019531 C 225.695312 112.972656 225.90625 111.894531 226.492188 107.371094 C 227.289062 101.277344 227.03125 96.472656 225.648438 91.199219 C 224.078125 85.152344 221.921875 81.167969 218.3125 77.605469 C 216.671875 75.988281 215.851562 75.378906 214.070312 74.488281 C 210.976562 72.941406 209.40625 72.566406 205.984375 72.589844 C 199.539062 72.589844 194.359375 75.027344 188.640625 80.769531 C 185.171875 84.238281 182.40625 88.222656 179.570312 93.964844 C 176.078125 100.972656 174.367188 107.558594 173.359375 118.035156 C 172.914062 122.769531 173.3125 133.808594 173.992188 135.636719 C 174.179688 136.105469 174.132812 136.199219 173.804688 136.199219 C 172.9375 136.199219 166.84375 132.191406 162.976562 129.050781 C 158.96875 125.839844 154.304688 120.753906 150.507812 115.574219 C 148.09375 112.246094 144.414062 106.457031 144.578125 106.222656 C 144.648438 106.105469 145.984375 105.378906 147.554688 104.628906 C 163.46875 96.941406 174.367188 84.285156 179.5 67.527344 C 181.351562 61.574219 182.101562 55.503906 181.890625 48.800781 C 181.539062 38.160156 178.5625 29.558594 172.914062 22.878906 C 169.726562 19.128906 166 16.667969 161.453125 15.355469 C 158.429688 14.464844 154.632812 14.464844 151.609375 15.355469 C 147.25 16.621094 142.75 19.410156 139.867188 22.574219 C 134.640625 28.363281 130.609375 36.214844 128.570312 44.558594 C 128.171875 46.175781 127.796875 48.003906 127.703125 48.636719 C 127.632812 49.269531 127.515625 49.855469 127.492188 49.925781 C 127.445312 49.996094 127.28125 51.964844 127.117188 54.285156 C 126.742188 60.003906 127.140625 67.128906 128.195312 72.917969 C 129.976562 82.832031 133.632812 94.386719 137.335938 101.792969 C 137.78125 102.660156 138.132812 103.433594 138.132812 103.480469 C 138.132812 103.550781 137.359375 103.832031 136.445312 104.113281 C 123.765625 107.886719 112.75 108.003906 100.984375 104.511719 C 98.898438 103.878906 96.882812 103.011719 96.882812 102.730469 C 96.882812 102.589844 97.679688 100.738281 98.640625 98.605469 C 104.359375 85.855469 108.953125 71.347656 110.804688 60.144531 C 111.835938 53.839844 112.09375 44.746094 111.34375 40.339844 C 109.890625 31.855469 107.242188 26.371094 101.945312 21.027344 C 98.828125 17.863281 95.898438 16.035156 92.382812 15.003906 C 89.898438 14.300781 85.703125 14.207031 82.984375 14.792969 Z M 90.835938 18.894531 C 94.070312 19.574219 97.984375 22.199219 100.796875 25.550781 C 104.945312 30.496094 106.9375 36.566406 107.335938 45.542969 C 107.476562 48.238281 107.21875 53.558594 106.796875 56.628906 C 105.976562 63.003906 103.28125 73.832031 100.398438 82.527344 C 98.382812 88.550781 93.625 100.410156 92.921875 101.113281 C 92.734375 101.300781 90.0625 100.246094 88.257812 99.238281 C 85.351562 97.621094 81.34375 94.761719 78.859375 92.488281 C 77.289062 91.011719 74.476562 87.753906 72.71875 85.316406 C 68.242188 79.058594 65.335938 70.902344 64.046875 61.082031 C 63.671875 58.246094 63.90625 49.363281 64.421875 46.574219 C 66.15625 37.035156 69.507812 29.957031 74.734375 24.753906 C 76.609375 22.878906 77.804688 21.894531 79.140625 21.144531 C 83.3125 18.800781 87.0625 18.074219 90.835938 18.894531 Z M 158.710938 19.363281 C 162.414062 19.972656 165.039062 21.332031 167.992188 24.144531 C 172.679688 28.644531 175.445312 34.410156 176.96875 42.894531 C 177.742188 47.207031 177.8125 52.738281 177.203125 57.214844 C 176.101562 65.019531 172.703125 74.160156 168.34375 80.886719 C 164.171875 87.332031 157.445312 93.777344 150.71875 97.785156 C 147.367188 99.777344 143.664062 101.558594 142.796875 101.605469 C 142.046875 101.628906 142.023438 101.582031 140.171875 97.878906 C 138.132812 93.753906 136.914062 90.847656 135.8125 87.378906 C 134.265625 82.574219 132.71875 75.472656 132.15625 70.667969 C 132.085938 70.152344 131.992188 69.378906 131.921875 68.933594 C 131.289062 64.503906 131.148438 55.246094 131.664062 51.355469 C 132.835938 42.613281 136.890625 32.839844 141.765625 27.003906 C 143.710938 24.683594 144.765625 23.675781 146.710938 22.363281 C 149.546875 20.441406 151.65625 19.574219 154.1875 19.316406 C 154.960938 19.246094 155.640625 19.152344 155.6875 19.105469 C 155.851562 18.941406 156.460938 19.011719 158.710938 19.363281 Z M 209.03125 77.417969 C 211.046875 77.839844 213.484375 79.152344 215.148438 80.699219 C 216.976562 82.433594 217.726562 83.441406 219.085938 86.207031 C 221.40625 90.894531 222.25 94.550781 222.4375 100.574219 C 222.695312 108.871094 221.382812 115.246094 218.054688 121.902344 C 212.78125 132.472656 202.75 138.871094 190.632812 139.410156 C 186.4375 139.597656 181.046875 138.894531 179.101562 137.910156 C 178.375 137.558594 178.398438 137.582031 177.742188 133.996094 C 176.453125 126.894531 177.203125 115.222656 179.523438 106.105469 C 182.148438 95.910156 187.960938 86.207031 194.453125 81.261719 C 199.328125 77.558594 203.992188 76.339844 209.03125 77.417969 Z M 40.679688 81.613281 C 46.328125 82.832031 51.578125 87.378906 55.046875 94.058594 C 56.289062 96.425781 58.257812 101.839844 58.539062 103.621094 C 58.609375 104.066406 58.820312 105.191406 59.007812 106.105469 C 59.59375 108.894531 59.734375 111.167969 59.710938 117.566406 C 59.664062 125.675781 59.101562 130.339844 57.109375 138.636719 L 56.289062 142.105469 L 55.257812 142.550781 C 53.523438 143.324219 50.265625 143.957031 47.195312 144.097656 C 35.875 144.613281 26.382812 139.105469 21.414062 129.167969 C 20.007812 126.402344 18.53125 121.503906 17.851562 117.449219 C 17.476562 115.199219 17.453125 107.253906 17.828125 105.261719 C 17.992188 104.417969 18.179688 103.316406 18.273438 102.800781 C 18.484375 101.417969 19.492188 97.644531 20.03125 96.285156 C 21.015625 93.777344 23.171875 90.003906 24.625 88.152344 C 27.226562 84.917969 30.414062 82.667969 33.578125 81.800781 C 35.382812 81.308594 38.828125 81.214844 40.679688 81.613281 Z M 40.679688 81.613281 "/>
</g>
</svg>
